<?xml version="1.0" standalone="no"?>
<!DOCTYPE svg PUBLIC "-//W3C//DTD SVG 20010904//EN"
 "http://www.w3.org/TR/2001/REC-SVG-20010904/DTD/svg10.dtd">
<svg version="1.0" xmlns="http://www.w3.org/2000/svg"
 width="1024.000000pt" height="1024.000000pt" viewBox="0 0 1024.000000 1024.000000"
 preserveAspectRatio="xMidYMid meet">

<g transform="translate(0.000000,1024.000000) scale(0.100000,-0.100000)"
fill="#000000" stroke="none">
<path d="M5092 9168 c-136 -108 -303 -356 -371 -552 -115 -327 -56 -648 152
-831 51 -45 160 -105 191 -105 14 0 16 -20 16 -166 l0 -166 -25 6 c-23 6 -97
39 -160 73 -11 6 -45 22 -76 36 l-56 25 -6 66 c-3 36 -14 80 -23 98 -22 42
-108 133 -161 170 -99 67 -268 106 -407 93 -101 -9 -127 -30 -119 -96 11 -97
45 -209 94 -309 46 -93 63 -116 148 -201 87 -85 109 -101 211 -152 158 -77
215 -91 380 -92 74 0 150 3 168 7 l32 8 0 -430 0 -430 -52 35 c-70 46 -109 54
-137 26 -13 -13 -21 -34 -21 -55 0 -39 21 -60 139 -139 l71 -48 0 -67 c0 -75
15 -106 55 -116 27 -7 62 7 82 33 8 11 12 62 13 158 l0 142 128 87 c70 48 142
101 160 117 37 36 42 73 14 108 -28 33 -71 29 -128 -13 -67 -47 -146 -103
-161 -112 -10 -6 -13 55 -13 292 l0 300 123 0 c139 -1 229 16 342 63 283 118
463 361 510 691 15 101 -4 114 -185 124 -189 11 -367 -50 -467 -160 -72 -79
-93 -129 -88 -209 l4 -64 -42 -19 c-23 -10 -77 -40 -119 -66 l-78 -48 0 193 0
194 84 41 c231 115 366 402 327 695 -24 177 -87 342 -189 497 -98 147 -249
300 -297 300 -12 0 -41 -15 -63 -32z m213 -333 c77 -116 140 -254 166 -361 30
-125 24 -291 -13 -381 -40 -98 -86 -161 -157 -215 l-66 -50 -3 514 c-2 457 0
578 13 578 2 0 29 -38 60 -85z m-225 -460 c-1 -377 -4 -535 -12 -535 -19 0
-104 68 -140 112 -107 131 -138 328 -84 540 23 89 99 260 148 333 28 40 70 85
80 85 4 0 8 -241 8 -535z m-662 -643 c28 -11 69 -34 92 -52 40 -32 86 -88 78
-95 -2 -3 -51 20 -109 50 -57 31 -137 72 -176 92 -40 21 -73 40 -73 44 0 9
132 -18 188 -39z m1552 -26 c0 -2 -46 -30 -102 -62 -57 -31 -134 -77 -172
-101 -38 -23 -71 -41 -74 -39 -9 9 10 44 45 84 44 48 115 85 193 101 117 23
110 22 110 17z m-1527 -234 c43 -26 309 -155 432 -209 44 -19 84 -39 89 -44 6
-5 -25 -9 -75 -9 -156 0 -299 51 -436 156 -66 51 -163 161 -163 186 0 9 66
-25 153 -80z m1526 -9 c-87 -152 -229 -267 -397 -320 -85 -26 -284 -44 -295
-26 -4 6 48 41 121 81 70 39 177 98 237 133 61 34 144 81 186 104 41 24 100
59 130 78 30 19 56 33 58 31 2 -2 -16 -38 -40 -81z"/>
<path d="M3736 8871 c-46 -10 -66 -33 -66 -76 0 -51 22 -62 135 -68 143 -8
247 -47 338 -127 60 -53 91 -106 116 -200 22 -83 40 -102 91 -98 76 6 82 100
14 246 -65 143 -220 265 -384 305 -82 20 -193 28 -244 18z"/>
<path d="M6452 8869 c-85 -14 -202 -65 -274 -119 -107 -81 -200 -218 -233
-346 -34 -130 -10 -214 60 -214 45 0 75 38 75 94 1 204 188 406 406 437 83 12
124 38 124 79 0 28 -41 68 -75 73 -16 3 -54 1 -83 -4z"/>
<path d="M5843 8858 c-27 -13 -43 -56 -32 -85 13 -35 55 -58 84 -45 56 26 68
95 22 127 -25 17 -43 18 -74 3z"/>
<path d="M6915 8566 c-40 -17 -101 -87 -110 -124 l-6 -30 -74 5 c-96 7 -154
-9 -203 -57 -76 -73 -79 -191 -9 -289 l35 -48 -34 -53 c-66 -105 -67 -215 -2
-294 50 -60 99 -80 200 -79 l87 1 6 -30 c10 -43 91 -123 140 -138 82 -24 183
33 225 127 l20 44 55 -6 c74 -10 134 8 189 56 57 50 76 93 76 167 0 57 -21
114 -69 188 -12 18 -10 25 18 64 17 24 38 68 47 97 14 48 14 58 0 106 -30 104
-112 153 -240 145 l-74 -5 -17 38 c-22 48 -71 98 -112 115 -41 17 -109 17
-148 0z m174 -386 c20 -10 50 -38 67 -61 26 -37 29 -51 29 -115 0 -66 -3 -76
-31 -110 -45 -56 -74 -74 -130 -80 -42 -5 -62 -2 -107 19 -123 56 -152 209
-59 309 64 68 146 82 231 38z"/>
<path d="M3920 8550 c-46 -46 -14 -120 51 -120 30 0 69 40 69 70 0 10 -9 29
-21 44 -25 32 -70 35 -99 6z"/>
<path d="M3534 8536 c-41 -18 -78 -67 -105 -141 -28 -75 -37 -86 -51 -61 -22
39 -83 98 -122 118 -55 28 -123 30 -142 4 -33 -46 -11 -133 57 -223 l40 -53
-64 0 c-172 0 -282 -92 -197 -164 44 -36 102 -49 188 -42 39 3 72 4 72 1 0 -2
-18 -32 -40 -66 -69 -107 -79 -182 -30 -231 35 -35 67 -34 126 3 32 19 124
144 124 168 0 24 17 9 38 -34 12 -24 38 -63 58 -85 68 -75 127 -90 171 -42 23
24 25 33 20 88 -2 36 -16 86 -32 122 -15 34 -25 67 -22 75 3 7 34 21 69 30
120 29 197 79 211 136 4 17 -1 31 -22 52 -37 37 -100 52 -193 47 -43 -3 -78
-4 -78 -4 0 1 9 30 20 64 35 111 22 224 -27 243 -30 11 -31 11 -69 -5z m-51
-328 c32 -16 54 -45 68 -85 9 -28 8 -43 -6 -80 -20 -53 -63 -83 -118 -83 -132
0 -185 157 -81 239 30 24 101 29 137 9z"/>
<path d="M2640 8440 c-43 -43 -11 -120 49 -120 34 0 71 39 71 76 0 33 -34 64
-70 64 -17 0 -39 -9 -50 -20z"/>
<path d="M7806 8209 c-52 -41 -25 -119 41 -119 35 0 73 36 73 69 0 27 -42 71
-68 71 -11 0 -31 -9 -46 -21z"/>
<path d="M2369 8096 c-36 -27 -69 -66 -105 -124 -2 -2 -29 6 -61 18 -74 28
-146 31 -170 7 -21 -20 -21 -79 0 -148 l14 -47 -41 -12 c-90 -27 -136 -62
-136 -104 0 -24 77 -96 126 -117 24 -11 44 -24 44 -28 0 -5 -7 -28 -15 -52 -9
-24 -17 -66 -18 -92 -2 -41 2 -52 22 -68 31 -25 71 -24 156 5 39 14 71 21 73
17 1 -5 17 -32 35 -62 34 -57 86 -99 123 -99 35 0 81 46 114 115 l30 63 43
-10 c63 -15 133 -5 162 22 32 30 31 51 -5 128 -21 44 -25 62 -16 62 13 0 86
73 86 86 0 14 -25 52 -56 85 l-35 35 26 57 c34 74 30 107 -15 130 -27 14 -49
17 -95 13 -33 -3 -68 -8 -78 -11 -11 -5 -19 -1 -23 11 -15 49 -41 101 -62 126
-32 38 -68 36 -123 -6z m91 -251 c107 -55 140 -202 67 -297 -47 -61 -89 -80
-160 -75 -79 7 -131 42 -163 110 -29 62 -30 108 -5 162 48 104 166 149 261
100z"/>
<path d="M7852 7844 c-18 -12 -22 -25 -22 -65 0 -87 63 -187 135 -214 45 -18
45 -18 64 6 31 37 35 73 15 136 -23 74 -96 153 -140 153 -16 0 -40 -7 -52 -16z"/>
<path d="M8175 7816 c-67 -69 -93 -173 -60 -236 17 -33 33 -37 73 -16 71 37
131 137 132 217 0 55 -21 79 -70 79 -26 0 -42 -9 -75 -44z"/>
<path d="M3806 7549 c-33 -26 -35 -70 -4 -99 64 -59 160 38 98 100 -26 26 -60
25 -94 -1z"/>
<path d="M7684 7546 c-32 -14 -64 -50 -64 -72 0 -7 11 -26 25 -42 67 -79 313
-49 323 40 3 29 -28 56 -87 76 -46 16 -159 14 -197 -2z"/>
<path d="M8257 7541 c-64 -26 -79 -39 -75 -70 9 -80 243 -116 315 -49 33 31
29 83 -10 112 -40 30 -163 34 -230 7z"/>
<path d="M2995 7425 c-30 -30 -31 -54 -4 -89 26 -33 68 -34 97 -3 65 70 -26
160 -93 92z"/>
<path d="M3403 7424 c-44 -44 -15 -114 47 -114 68 0 97 78 44 119 -35 28 -59
26 -91 -5z"/>
<path d="M6489 7389 c-29 -29 -23 -88 12 -108 35 -20 75 -7 94 29 36 69 -50
135 -106 79z"/>
<path d="M7949 7377 c-79 -53 -140 -178 -119 -243 33 -99 159 -43 210 94 25
67 25 85 -2 133 -25 45 -42 48 -89 16z"/>
<path d="M8127 7382 c-47 -51 -43 -113 13 -209 35 -60 68 -86 112 -86 72 0 88
81 36 183 -49 95 -127 149 -161 112z"/>
<path d="M7350 7330 c-44 -44 -14 -120 48 -120 28 0 72 42 72 68 0 59 -79 93
-120 52z"/>
<path d="M1520 7108 c-12 -13 -20 -35 -20 -55 0 -40 19 -53 110 -77 97 -25
145 -66 200 -166 47 -88 62 -99 115 -86 30 8 49 55 40 98 -20 89 -94 191 -180
246 -93 59 -228 80 -265 40z"/>
<path d="M8608 7065 c-90 -33 -184 -121 -225 -212 -31 -67 -24 -110 22 -132
37 -18 69 -2 102 49 65 103 74 112 141 142 87 40 102 54 102 94 0 23 -7 38
-26 53 -30 24 -63 26 -116 6z"/>
<path d="M2345 6965 c-64 -63 19 -151 93 -99 31 21 31 87 0 108 -32 23 -65 20
-93 -9z"/>
<path d="M2741 6966 c-8 -10 -10 -393 -9 -1437 l3 -1424 209 -3 c161 -2 211 1
218 10 4 7 8 474 8 1038 0 578 4 1020 9 1015 4 -6 100 -185 211 -400 111 -214
222 -426 245 -470 24 -44 110 -208 193 -365 312 -595 642 -1213 792 -1485 43
-77 139 -252 215 -390 232 -421 283 -511 304 -529 19 -17 21 -17 43 5 13 13
86 139 162 279 77 140 237 433 356 650 119 217 264 483 322 590 58 107 148
274 201 370 146 270 546 1020 726 1363 89 170 171 323 182 340 19 32 19 26 19
-984 0 -851 2 -1018 14 -1028 9 -8 75 -11 217 -9 l204 3 3 1424 c1 1044 -1
1427 -9 1437 -9 11 -63 14 -260 14 l-249 0 -23 -37 c-13 -21 -72 -132 -132
-248 -59 -115 -122 -237 -140 -270 -18 -33 -101 -190 -185 -350 -217 -411
-710 -1338 -857 -1610 -69 -126 -224 -416 -346 -642 -122 -227 -224 -413 -228
-413 -11 0 -326 592 -804 1510 -65 124 -136 261 -160 305 -23 44 -84 161 -135
260 -51 99 -116 225 -145 280 -56 107 -129 246 -245 470 -40 77 -90 172 -110
211 -21 39 -80 151 -130 250 -51 98 -106 203 -123 232 l-31 52 -262 0 c-208 0
-264 -3 -273 -14z"/>
<path d="M3690 6970 c0 -5 119 -240 264 -522 145 -282 361 -704 481 -938 332
-649 441 -860 534 -1040 47 -91 109 -209 136 -263 28 -53 53 -97 56 -97 4 0
42 69 84 153 43 83 92 179 110 212 18 33 70 132 115 220 46 88 185 354 310
590 125 237 258 489 295 560 65 124 94 180 218 415 280 534 367 701 367 710 0
6 -88 10 -259 10 l-259 0 -109 -212 c-175 -338 -370 -714 -433 -833 -32 -60
-131 -252 -220 -425 -203 -394 -211 -410 -221 -410 -5 0 -216 415 -470 923
-254 507 -468 930 -477 940 -14 15 -40 17 -269 17 -159 0 -253 -4 -253 -10z"/>
<path d="M7953 6815 c-39 -16 -63 -60 -63 -113 0 -77 74 -127 144 -98 39 16
76 67 76 104 0 41 -30 90 -65 106 -40 19 -51 19 -92 1z"/>
<path d="M4740 6680 c-26 -26 -26 -81 -2 -103 24 -22 75 -22 95 1 30 33 31 69
3 96 -30 31 -69 33 -96 6z"/>
<path d="M1472 6643 c-23 -9 -185 -262 -250 -390 -34 -66 -75 -162 -92 -212
-126 -374 74 -755 425 -812 l75 -12 0 -158 c0 -88 -2 -159 -5 -159 -3 0 -47
36 -97 80 -195 173 -546 400 -618 400 -51 0 -63 -82 -35 -245 63 -358 286
-635 659 -816 103 -50 109 -52 135 -38 19 11 27 24 29 50 5 64 -10 84 -94 124
-120 57 -243 138 -309 202 -107 104 -196 248 -244 395 -34 103 -29 107 60 50
83 -55 232 -166 294 -220 322 -282 437 -411 553 -619 56 -100 68 -113 108
-113 39 0 74 32 74 67 0 12 -20 61 -45 109 -49 94 -51 102 -31 118 7 6 42 47
78 91 181 222 268 425 208 485 -42 42 -114 13 -125 -49 -14 -82 -138 -288
-213 -355 -21 -18 -22 -18 -31 6 -8 21 -65 121 -78 138 -2 2 -19 -13 -37 -34
l-32 -39 -26 31 c-46 55 -48 124 -5 138 49 14 242 116 301 159 141 101 237
247 276 421 33 145 30 387 -5 440 -12 18 -24 24 -53 24 -46 -1 -60 -12 -95
-78 -60 -115 -181 -286 -252 -356 -85 -86 -237 -195 -198 -143 5 6 22 46 37
87 26 69 51 128 107 257 46 104 10 304 -90 508 -57 116 -232 391 -285 448 -24
26 -45 32 -74 20z m78 -302 c22 -33 40 -64 40 -68 0 -5 -9 -16 -19 -25 -19
-16 -21 -15 -53 30 -19 26 -37 52 -41 59 -8 13 11 63 24 63 5 0 26 -27 49 -59z
m-90 -256 c36 -48 66 -75 85 -75 4 0 35 27 70 61 l64 61 30 -61 c17 -33 31
-66 31 -73 0 -8 -44 -57 -98 -111 l-98 -98 -32 50 c-63 97 -112 119 -154 69
-34 -38 -18 -88 66 -206 106 -150 116 -153 202 -54 74 84 152 157 161 149 15
-16 -23 -131 -92 -274 l-75 -156 -32 6 c-145 24 -257 123 -318 282 -18 46 -23
81 -23 150 -1 109 18 186 79 314 l44 94 25 -37 c14 -20 43 -61 65 -91z m828
-557 c-4 -74 -10 -104 -31 -144 -63 -124 -185 -235 -355 -322 -55 -29 -106
-52 -112 -52 -8 0 -11 18 -8 57 l3 57 71 48 c155 105 293 242 387 385 23 35
43 63 45 63 3 0 3 -42 0 -92z"/>
<path d="M8773 6635 c-34 -24 -249 -420 -316 -585 -36 -87 -70 -209 -82 -292
-6 -44 -3 -52 33 -105 21 -32 46 -80 55 -107 18 -53 23 -146 8 -146 -14 0
-117 116 -226 253 -80 101 -107 129 -134 137 -24 6 -39 6 -48 -2 -21 -17 -15
6 8 31 l22 23 -23 -7 c-15 -5 -20 -4 -16 4 4 6 21 15 39 19 l32 9 -53 11
c-137 30 -157 13 -157 -132 0 -55 4 -119 8 -141 l9 -40 13 33 c8 17 19 32 25
32 5 0 10 5 10 11 0 6 7 17 15 26 9 8 19 28 22 44 7 35 23 39 23 6 0 -69 204
-334 379 -490 53 -48 53 -49 47 -94 -3 -25 -6 -63 -6 -84 0 -35 -2 -38 -27
-36 -23 2 -31 -4 -44 -33 -9 -19 -20 -47 -23 -63 -6 -25 -2 -29 49 -53 42 -20
55 -32 55 -48 0 -23 -57 -86 -77 -86 -7 0 -16 -6 -20 -12 -5 -7 -43 -46 -84
-86 l-76 -74 -58 102 c-74 130 -97 147 -157 116 -19 -10 -28 -11 -28 -4 0 6
-3 9 -6 5 -19 -18 63 -205 139 -316 29 -42 29 -45 13 -70 -29 -46 -73 -135
-80 -164 -5 -21 -1 -33 18 -52 48 -48 100 -26 142 58 78 154 244 353 354 422
22 14 89 63 149 109 122 94 414 296 428 296 5 0 28 16 50 35 55 47 86 58 131
46 19 -6 39 -8 43 -6 4 3 13 36 20 74 11 62 10 73 -5 95 -30 47 -76 32 -295
-96 -141 -83 -409 -271 -427 -299 -18 -30 -24 6 -24 151 l0 160 53 0 c177 1
343 111 426 282 96 200 93 437 -9 694 -67 167 -195 393 -247 434 -31 24 -42
25 -70 5z m101 -345 c31 -61 56 -118 56 -128 0 -9 -22 -33 -48 -52 -77 -57
-251 -230 -299 -297 -25 -35 -47 -63 -49 -63 -21 0 45 207 106 335 63 131 163
315 171 315 4 0 32 -50 63 -110z m141 -426 c15 -136 -33 -298 -115 -388 -45
-49 -123 -91 -187 -102 l-39 -6 -17 70 c-33 135 -18 194 78 313 57 70 117 130
200 198 l50 41 11 -33 c6 -18 15 -60 19 -93z"/>
<path d="M2195 6500 c-64 -25 -64 -119 0 -146 120 -50 244 54 154 130 -25 21
-41 26 -82 25 -29 0 -61 -4 -72 -9z"/>
<path d="M7853 6370 c-47 -19 -56 -78 -18 -116 25 -25 26 -25 189 -22 145 3
166 5 185 22 31 28 28 79 -5 105 -24 19 -40 21 -178 20 -83 0 -161 -4 -173 -9z"/>
<path d="M7912 5443 c6 -66 77 -212 145 -301 89 -116 122 -134 168 -87 39 38
32 67 -40 163 -35 47 -85 128 -111 179 l-46 93 -60 0 -61 0 5 -47z"/>
<path d="M9125 4899 c-33 -56 -88 -132 -123 -170 -106 -114 -155 -145 -470
-290 -78 -36 -92 -50 -92 -97 0 -35 27 -62 61 -62 28 0 198 64 281 106 162 81
292 185 387 308 44 56 131 217 131 240 0 12 -16 22 -86 52 l-31 13 -58 -100z"/>
<path d="M3410 4650 c-46 -46 -14 -120 51 -120 30 0 69 40 69 70 0 10 -9 29
-21 44 -25 32 -70 35 -99 6z"/>
<path d="M2316 4453 c-52 -27 -42 -107 17 -127 38 -14 81 19 85 63 6 58 -49
92 -102 64z"/>
<path d="M3515 4121 c-69 -17 -116 -55 -151 -121 -14 -26 -19 -56 -19 -115 0
-92 20 -141 80 -193 43 -38 69 -46 141 -40 69 6 118 43 157 119 25 48 28 62
24 124 -6 114 -61 194 -151 220 -27 8 -50 15 -50 14 -1 -1 -14 -4 -31 -8z m54
-161 c61 -32 41 -160 -24 -160 -52 0 -77 89 -41 145 17 27 36 31 65 15z"/>
<path d="M6680 4109 c-35 -14 -78 -57 -103 -104 -17 -31 -22 -58 -22 -120 0
-93 24 -147 88 -198 51 -41 134 -49 195 -18 81 41 127 135 118 238 -8 96 -59
176 -129 202 -35 13 -113 13 -147 0z m115 -162 c26 -40 28 -79 6 -114 -39 -63
-106 -30 -106 52 0 74 65 115 100 62z"/>
<path d="M1262 4090 c-50 -21 -48 -105 4 -128 43 -20 94 13 94 62 0 37 -7 49
-37 65 -25 13 -30 13 -61 1z"/>
<path d="M8977 4089 c-28 -16 -40 -58 -27 -90 29 -70 130 -49 130 27 0 57 -55
91 -103 63z"/>
<path d="M8337 4038 c-24 -19 -36 -60 -42 -141 -10 -124 -16 -157 -28 -157 -7
0 -37 43 -67 96 -30 53 -65 105 -79 115 -36 29 -85 25 -111 -8 -35 -45 -23
-88 54 -195 36 -50 64 -93 62 -96 -3 -2 -56 17 -119 42 -131 53 -167 57 -202
21 -60 -59 -16 -114 131 -164 99 -34 123 -46 112 -56 -3 -3 -51 -17 -107 -30
-56 -14 -115 -32 -131 -40 -52 -27 -52 -105 0 -133 33 -16 90 -8 199 29 47 16
92 29 98 29 24 0 13 -26 -28 -65 -106 -104 -129 -194 -58 -230 21 -12 34 -12
56 -4 41 15 59 34 119 126 29 46 58 83 63 83 10 0 12 -10 29 -173 7 -70 14
-93 32 -112 31 -33 73 -33 105 0 30 29 33 91 10 195 -28 127 -19 136 65 59
124 -114 161 -129 205 -84 29 28 33 74 9 110 -17 27 -161 145 -175 145 -5 0
-9 6 -9 14 0 11 29 15 151 18 144 3 152 4 170 27 26 31 25 83 -2 107 -19 17
-37 19 -170 17 -82 -1 -149 2 -149 7 0 5 17 19 37 31 68 42 154 120 171 155
15 33 15 37 -2 69 -23 42 -61 53 -105 31 -17 -9 -68 -51 -113 -94 -96 -89 -99
-87 -74 48 22 113 21 161 -5 194 -23 29 -73 36 -102 14z m12 -449 c36 -13 61
-53 61 -99 0 -47 -47 -90 -98 -90 -103 0 -138 126 -50 180 38 23 44 24 87 9z"/>
<path d="M1850 4022 c-36 -29 -37 -114 -4 -279 5 -26 3 -33 -9 -33 -9 0 -22 8
-29 18 -7 9 -46 47 -86 85 -64 59 -77 67 -111 67 -31 0 -44 -6 -60 -26 -43
-55 -18 -104 98 -196 44 -34 80 -66 80 -70 1 -4 -65 -6 -145 -5 -142 2 -146 1
-165 -22 -10 -13 -19 -34 -19 -46 0 -70 38 -87 203 -93 70 -3 127 -8 127 -12
0 -4 -31 -30 -69 -58 -81 -61 -131 -115 -131 -143 0 -34 29 -78 55 -85 42 -10
68 3 160 81 55 47 92 72 98 66 5 -5 3 -38 -7 -86 -18 -89 -21 -187 -5 -216 27
-51 106 -41 133 16 13 27 35 173 36 238 0 36 26 14 60 -50 47 -92 107 -153
149 -153 39 0 81 38 81 75 0 37 -24 80 -90 162 -32 39 -57 73 -54 76 3 2 39
-11 82 -29 184 -79 262 -74 262 17 0 52 -39 82 -148 114 -121 36 -140 45 -122
55 8 4 51 18 95 29 145 39 201 87 176 149 -15 37 -58 57 -103 48 -18 -4 -78
-24 -133 -45 -55 -21 -102 -34 -103 -29 -2 5 21 39 52 77 62 76 99 150 90 178
-13 34 -47 63 -75 63 -40 0 -88 -46 -145 -140 -27 -44 -54 -80 -61 -80 -7 0
-14 29 -18 78 -11 141 -17 171 -37 197 -24 30 -75 34 -108 7z m154 -442 c30
-11 56 -57 56 -100 0 -74 -105 -119 -159 -69 -88 82 -10 212 103 169z"/>
<path d="M3975 3677 c-102 -105 -210 -278 -265 -424 l-31 -82 -89 102 c-49 56
-95 107 -102 112 -7 6 -40 33 -73 62 -76 65 -206 148 -315 203 -158 79 -190
81 -209 13 -92 -329 -127 -672 -92 -902 14 -89 13 -95 -4 -105 -100 -59 -99
-101 8 -261 119 -178 248 -277 437 -336 62 -20 97 -24 200 -24 145 0 225 20
350 87 41 22 76 35 78 29 2 -5 34 -56 72 -113 91 -138 178 -219 410 -388 266
-192 384 -284 371 -288 -13 -4 -263 32 -371 54 -117 24 -305 72 -365 95 -89
33 -155 128 -176 254 -6 39 -18 78 -27 88 -15 17 -68 23 -88 9 -36 -24 -44
-105 -18 -191 8 -29 14 -55 12 -57 -7 -6 -274 112 -399 178 -229 119 -385 233
-534 390 -184 193 -265 363 -295 618 -12 107 -27 131 -80 132 -24 1 -39 -6
-53 -23 -18 -22 -19 -34 -14 -129 10 -188 63 -341 180 -517 84 -129 246 -296
387 -400 456 -336 1208 -603 1866 -663 219 -20 193 -10 284 -111 116 -126 121
-125 341 67 30 26 48 33 105 38 1060 109 2015 575 2341 1141 78 135 116 255
134 421 13 120 5 155 -40 174 -33 13 -75 0 -91 -29 -6 -11 -15 -64 -20 -118
-12 -125 -31 -196 -80 -300 -71 -152 -169 -276 -319 -404 -333 -285 -859 -525
-1419 -649 -108 -24 -302 -53 -308 -47 -2 2 53 51 123 108 71 57 180 147 243
200 63 52 136 112 161 131 l47 35 148 6 c217 8 379 57 563 169 101 62 284 238
351 337 57 85 114 208 140 306 31 112 37 351 16 590 -8 99 -18 235 -22 302 -6
101 -10 125 -25 139 -17 16 -22 16 -66 -1 -115 -43 -595 -293 -736 -383 -149
-95 -314 -249 -396 -371 -100 -146 -155 -292 -173 -456 -17 -148 5 -266 73
-400 l51 -100 -48 -42 c-27 -24 -51 -43 -54 -43 -3 0 -16 28 -30 63 -84 219
-255 493 -322 516 -39 14 -54 6 -160 -86 -304 -261 -466 -596 -494 -1020 -6
-100 -7 -102 -28 -91 -11 6 -68 56 -125 110 -129 123 -213 191 -366 298 -204
143 -307 223 -369 285 -62 63 -138 171 -170 243 l-19 42 56 58 c108 114 191
266 234 432 34 129 36 321 6 460 -40 177 -157 460 -204 493 -36 26 -49 21
-104 -36z m-897 -194 c148 -83 216 -134 335 -251 103 -100 170 -189 163 -216
-2 -12 -10 -47 -16 -78 -6 -32 -15 -58 -19 -58 -8 0 -114 129 -259 319 -52 67
-105 129 -118 137 -52 35 -123 -14 -109 -76 4 -16 76 -123 161 -236 85 -114
154 -207 154 -208 0 0 -57 -1 -128 -2 -110 0 -137 -4 -202 -27 -45 -15 -79
-22 -84 -16 -19 17 -20 337 -2 448 22 142 57 291 68 291 5 0 30 -12 56 -27z
m966 -40 c53 -107 107 -318 105 -412 0 -27 -6 -14 -20 47 -24 107 -52 187
-101 289 -33 67 -38 85 -28 102 6 12 13 21 15 21 3 0 15 -21 29 -47z m3181
-20 c-44 -112 -64 -149 -167 -310 -96 -151 -268 -378 -268 -354 0 6 7 57 14
113 8 57 22 164 31 238 9 74 18 143 21 152 3 10 31 33 62 52 82 49 305 166
319 166 7 0 4 -20 -12 -57z m-3302 -224 c34 -85 86 -342 94 -462 7 -114 -6
-176 -55 -270 l-36 -67 -15 27 c-37 71 -90 205 -107 273 -25 100 -25 281 -1
365 24 83 81 215 88 207 4 -4 18 -37 32 -73z m3396 -136 l1 -43 -65 0 c-36 0
-65 2 -65 5 0 2 26 44 58 92 l57 88 7 -50 c3 -27 7 -69 7 -92z m-639 77 c0
-43 -60 -508 -70 -550 -7 -25 -36 -62 -101 -125 -74 -72 -91 -85 -86 -63 8 32
43 242 52 315 6 47 4 55 -19 78 -30 30 -76 33 -99 7 -11 -11 -29 -89 -52 -212
-46 -257 -66 -350 -75 -350 -12 0 -30 110 -30 184 1 191 84 384 236 546 65 70
219 200 236 200 5 0 8 -13 8 -30z m640 -312 c0 -96 -95 -344 -143 -370 -17
-10 -75 -12 -245 -8 l-223 5 60 61 59 61 163 -5 c157 -4 165 -3 192 18 34 27
38 89 7 120 -17 17 -33 20 -121 20 l-101 0 34 38 c18 20 40 47 49 59 17 25 41
29 172 32 l97 1 0 -32z m-3837 -196 c127 -46 215 -123 278 -245 40 -77 41 -81
23 -94 -24 -18 -131 -73 -141 -73 -4 0 -18 24 -31 53 -58 133 -172 243 -295
283 -124 40 -217 77 -217 84 0 15 42 19 185 16 112 -2 152 -7 198 -24z m-483
-137 c45 -19 129 -49 188 -66 58 -17 125 -44 148 -60 42 -29 97 -96 128 -156
l17 -33 -31 0 c-57 0 -184 31 -245 59 -116 54 -223 152 -282 259 -24 41 -25
41 77 -3z m2722 -247 c44 -67 118 -201 118 -215 0 -6 -39 -33 -86 -59 -123
-69 -154 -98 -154 -140 0 -43 30 -74 71 -74 35 0 49 7 147 72 41 26 75 48 77
48 1 0 10 -18 19 -41 16 -40 16 -40 -11 -63 -16 -13 -86 -74 -158 -135 l-129
-111 -18 48 c-21 56 -49 82 -91 82 -67 0 -84 -57 -47 -165 11 -31 18 -61 15
-65 -2 -3 -61 -53 -130 -109 l-125 -102 0 108 c0 346 122 646 358 881 51 50
96 92 101 92 4 0 24 -24 43 -52z m1298 35 c9 -8 -84 -82 -120 -95 -22 -8 -89
-13 -180 -13 -117 0 -154 4 -192 18 -27 10 -48 22 -48 25 0 4 19 23 42 43 l42
37 226 -5 c124 -3 227 -8 230 -10z"/>
<path d="M6332 3570 c-12 -5 -27 -21 -32 -36 -19 -50 11 -94 65 -94 63 0 89
80 39 119 -29 23 -38 24 -72 11z"/>
<path d="M6071 3314 c-12 -15 -21 -34 -21 -44 0 -10 9 -29 21 -44 40 -50 119
-21 119 44 0 65 -79 94 -119 44z"/>
<path d="M5658 2926 c-10 -7 -21 -27 -24 -45 -13 -66 68 -107 114 -58 59 63
-22 155 -90 103z"/>
<path d="M2017 2658 c-28 -22 -32 -69 -7 -101 26 -32 58 -35 94 -6 32 25 36
77 8 102 -22 20 -71 22 -95 5z"/>
<path d="M8132 2647 c-43 -46 -14 -117 47 -117 34 0 71 39 71 76 0 58 -77 84
-118 41z"/>
<path d="M4622 2497 c-35 -37 -28 -70 28 -132 80 -88 121 -193 119 -302 -2
-69 19 -103 64 -103 23 0 41 8 58 26 22 23 24 34 23 107 -1 141 -53 272 -146
370 -46 48 -59 57 -89 57 -24 0 -42 -7 -57 -23z"/>
<path d="M4375 2397 c-20 -17 -28 -33 -28 -55 0 -68 70 -95 120 -46 20 20 24
31 19 57 -12 62 -66 83 -111 44z"/>
</g>
</svg>
